<?xml version="1.0" standalone="no"?>
<!DOCTYPE svg PUBLIC "-//W3C//DTD SVG 20010904//EN"
 "http://www.w3.org/TR/2001/REC-SVG-20010904/DTD/svg10.dtd">
<svg version="1.0" xmlns="http://www.w3.org/2000/svg"
 width="400.000000pt" height="400.000000pt" viewBox="0 0 400.000000 400.000000"
 preserveAspectRatio="xMidYMid meet">
<metadata>
Created by potrace 1.14, written by Peter Selinger 2001-2017
</metadata>
<g transform="translate(0.000000,400.000000) scale(0.100000,-0.100000)"
fill="#000000" stroke="none">
<path d="M2004 3978 c-16 -12 -31 -25 -34 -28 -19 -20 -43 -32 -72 -36 -18 -3
-55 -9 -83 -14 -27 -5 -70 -12 -95 -15 -25 -3 -52 -8 -60 -10 -8 -2 -35 -7
-60 -10 -90 -11 -107 -19 -205 -88 -116 -81 -159 -105 -200 -111 -17 -2 -37
-6 -45 -9 -13 -5 -54 -16 -165 -42 -11 -3 -29 -7 -40 -9 -77 -16 -114 -30
-118 -44 -9 -31 -58 -167 -66 -187 -38 -87 -45 -122 -77 -400 -3 -27 -9 -77
-13 -110 -5 -33 -9 -101 -10 -152 -2 -75 2 -99 18 -131 11 -22 23 -58 25 -79
3 -21 8 -56 10 -78 3 -22 8 -56 10 -75 3 -19 8 -60 11 -90 4 -30 8 -62 10 -70
5 -17 11 -70 20 -175 4 -38 8 -77 10 -85 3 -8 7 -51 10 -96 3 -44 8 -92 10
-105 3 -13 7 -53 10 -89 3 -36 7 -87 10 -115 2 -27 7 -88 10 -135 3 -47 8
-110 10 -140 2 -30 7 -98 10 -150 6 -82 14 -114 63 -240 30 -80 63 -165 72
-190 16 -40 77 -197 162 -412 24 -61 37 -82 64 -99 19 -11 40 -26 47 -33 6 -6
39 -29 72 -51 33 -22 69 -48 80 -58 21 -20 56 -20 665 -2 150 5 187 9 280 36
25 7 50 13 55 15 38 9 216 57 240 65 24 8 54 46 148 188 126 189 134 203 159
266 9 22 28 66 42 98 87 191 80 156 101 542 8 163 17 260 24 266 3 3 33 16 66
29 33 12 65 27 72 32 6 5 29 44 50 86 l38 77 0 284 1 284 -37 111 c-22 66 -42
112 -50 112 -8 1 -24 2 -36 3 -21 1 -22 5 -18 69 2 37 4 128 5 203 l1 137 -54
158 c-83 242 -96 277 -106 287 -5 5 -65 45 -133 88 -67 43 -128 83 -135 88 -7
6 -17 11 -23 11 -5 0 -10 3 -10 8 -11 190 -17 222 -38 223 -36 3 -62 8 -205
43 l-148 36 -89 69 -89 69 -74 1 c-62 1 -79 -3 -103 -21z"/>
</g>
</svg>
